<?xml version="1.0" standalone="no"?>
<!DOCTYPE svg PUBLIC "-//W3C//DTD SVG 20010904//EN"
 "http://www.w3.org/TR/2001/REC-SVG-20010904/DTD/svg10.dtd">
<svg version="1.0" xmlns="http://www.w3.org/2000/svg"
 width="500.000000pt" height="500.000000pt" viewBox="0 0 500.000000 500.000000"
 preserveAspectRatio="xMidYMid meet">
<metadata>
Created by potrace 1.11, written by Peter Selinger 2001-2013
</metadata>
<g transform="translate(0.000000,500.000000) scale(0.100000,-0.100000)"
fill="#000000" stroke="none">
<path d="M2298 4985 c-1 -2 -34 -6 -73 -10 -38 -3 -77 -8 -85 -10 -8 -3 -33
-7 -55 -11 -78 -11 -226 -45 -283 -65 -31 -11 -57 -19 -57 -19 0 10 -222 -78
-325 -128 -260 -126 -479 -281 -678 -482 -105 -105 -111 -112 -200 -224 -204
-256 -391 -636 -457 -926 -39 -174 -43 -199 -64 -375 -18 -156 -6 -493 24
-650 52 -275 107 -446 217 -675 73 -150 225 -392 291 -462 7 -7 28 -33 48 -58
79 -97 272 -282 384 -366 212 -161 455 -292 695 -375 99 -35 287 -85 345 -94
23 -3 52 -8 65 -10 172 -35 599 -41 756 -11 12 3 39 7 60 10 34 5 98 18 159
31 302 64 668 235 930 434 363 277 663 667 814 1061 18 47 37 94 41 105 10 23
40 125 69 235 20 78 45 222 60 350 9 80 7 455 -4 530 -64 460 -205 815 -469
1185 -28 39 -53 72 -56 75 -4 3 -33 37 -65 75 -66 79 -207 219 -275 274 -25
20 -50 41 -56 46 -6 6 -24 20 -40 32 -16 12 -50 37 -77 57 -26 20 -50 36 -52
36 -3 0 -19 9 -35 20 -17 11 -44 29 -60 40 -56 38 -259 140 -357 179 -90 36
-273 96 -319 105 -10 2 -50 11 -88 20 -39 9 -86 19 -105 21 -80 10 -127 17
-151 22 -28 6 -466 13 -472 8z"/>
</g>
</svg>
